# xmcd CD database file
#
# Track frame offsets:
#	150
#	35725
#	65275
#	88890
#	119137
#	146327
#	181415
#	214617
#	258072
#
# Disc length: 4115 seconds
#
# Revision: 0
# Processed by: cddbd v1.5.1PL0 Copyright (c) Steve Scherf et al.
# Submitted via: CDex 1.51
#
DISCID=82101109
DTITLE=Michael Wolff - Impure Thoughts
DYEAR=2000
DGENRE=Jazz
TTITLE0=Eritrea
TTITLE1=Papa Was A Rolling Stone
TTITLE2=Euphoria
TTITLE3=Bengal
TTITLE4=Thank You (Falettinme Be Mice Elf Agin)
TTITLE5=In A Silent Way
TTITLE6=Impure Thoughts
TTITLE7=Mama Tell Me
TTITLE8=Michael Wolff Video
EXTD=YEAR: 2000
EXTT0=
EXTT1=
EXTT2=
EXTT3=
EXTT4=
EXTT5=
EXTT6=
EXTT7=
EXTT8=
PLAYORDER=
